<?xml version="1.0" encoding="UTF-8" standalone="no"?>
<svg
   height="300"
   width="300"
   viewBox="-11.493675 -16.3118 24.902963 36.70155"
   version="1.1"
   id="svg2"
   sodipodi:docname="linkedin.svg"
   inkscape:version="1.4.2 (2aeb623e1d, 2025-05-12)"
   inkscape:export-filename="linkedin.png"
   inkscape:export-xdpi="96"
   inkscape:export-ydpi="96"
   xmlns:inkscape="http://www.inkscape.org/namespaces/inkscape"
   xmlns:sodipodi="http://sodipodi.sourceforge.net/DTD/sodipodi-0.dtd"
   xmlns="http://www.w3.org/2000/svg"
   xmlns:svg="http://www.w3.org/2000/svg">
  <defs
     id="defs2" />
  <sodipodi:namedview
     id="namedview2"
     pagecolor="#ffffff"
     bordercolor="#000000"
     borderopacity="0.25"
     inkscape:showpageshadow="2"
     inkscape:pageopacity="0.0"
     inkscape:pagecheckerboard="0"
     inkscape:deskcolor="#d1d1d1"
     inkscape:zoom="3.6275"
     inkscape:cx="71.123363"
     inkscape:cy="137.1468"
     inkscape:window-width="3030"
     inkscape:window-height="1659"
     inkscape:window-x="0"
     inkscape:window-y="0"
     inkscape:window-maximized="1"
     inkscape:current-layer="svg2" />
  <rect
     style="fill:#ffffff;stroke-width:0.122339"
     id="rect2"
     width="28.025719"
     height="28.666498"
     x="-13.716912"
     y="-11.387906" />
  <path
     fill="#0a66c2"
     d="M 13.690473,14.700076 H 8.3073127 V 6.3065131 c 0,-2.0015247 -0.035883,-4.5781038 -2.7998045,-4.5781038 -2.8037304,0 -3.2327008,2.1807406 -3.2327008,4.4323861 V 14.699516 H -3.1083534 V -2.5610508 h 5.1678346 v 2.35884017 h 0.072335 C 3.1855669,-1.996072 5.1448864,-3.0674736 7.2306788,-2.9903877 c 5.4560592,0 6.4620362,3.57315431 6.4620362,8.2216047 z M -9.1823523,-4.9204493 c -2.7833047,4.976e-4 -4.1772887,-3.3494979 -2.2097867,-5.3091397 1.9675016,-1.959643 5.3326415,-0.572929 5.3331411,2.1982623 3.097e-4,1.7177817 -1.3980637,3.1105689 -3.1233544,3.1108774 M -6.4907724,14.700076 H -11.87954 V -2.5610508 h 5.3887676 z M 16.374203,-16.11838 h -30.958782 c -1.463176,-0.01644 -2.663069,1.150494 -2.680926,2.607286 v 30.951891 c 0.01725,1.457494 1.217042,2.625583 2.680926,2.610077 h 30.958782 c 1.46678,0.01832 2.671275,-1.149706 2.691581,-2.610077 v -30.954124 c -0.02092,-1.45967 -1.225508,-2.626538 -2.691581,-2.607286"
     id="path1"
     style="stroke-width:0.559524"
     sodipodi:nodetypes="ccsssccccccccccssccccccccccccccc" />
</svg>
