<?xml version="1.0" encoding="UTF-8" standalone="no"?>
<svg
   width="300"
   height="300"
   viewBox="0 0 79.37499 79.37499"
   inkscape:version="1.4.2 (2aeb623e1d, 2025-05-12)"
   sodipodi:docname="ig.svg"
   version="1.1"
   id="svg15"
   inkscape:export-filename="ig.png"
   inkscape:export-xdpi="96"
   inkscape:export-ydpi="96"
   xmlns:inkscape="http://www.inkscape.org/namespaces/inkscape"
   xmlns:sodipodi="http://sodipodi.sourceforge.net/DTD/sodipodi-0.dtd"
   xmlns:xlink="http://www.w3.org/1999/xlink"
   xmlns="http://www.w3.org/2000/svg"
   xmlns:svg="http://www.w3.org/2000/svg">
  <defs
     id="defs11">
    <radialGradient
       id="f"
       cx="158.429"
       cy="578.08801"
       r="52.351501"
       xlink:href="#a"
       gradientUnits="userSpaceOnUse"
       gradientTransform="matrix(0,-1.2082953,1.2819761,0,-720.04577,276.77913)"
       fx="158.429"
       fy="578.08801" />
    <radialGradient
       inkscape:collect="always"
       xlink:href="#b"
       id="g"
       gradientUnits="userSpaceOnUse"
       gradientTransform="matrix(0.2019956,-0.3480448,0.45311457,0.26297671,-265.42416,-19.761456)"
       cx="172.6149"
       cy="600.69238"
       fx="172.6149"
       fy="600.69238"
       r="65" />
    <radialGradient
       inkscape:collect="always"
       xlink:href="#c"
       id="h"
       cx="144.01199"
       cy="51.3367"
       fx="144.01199"
       fy="51.3367"
       r="67.081001"
       gradientTransform="matrix(-0.71850542,0.20231903,-0.06891231,-0.24479917,117.76317,-13.342292)"
       gradientUnits="userSpaceOnUse" />
    <radialGradient
       inkscape:collect="always"
       xlink:href="#d"
       id="e"
       gradientUnits="userSpaceOnUse"
       gradientTransform="matrix(-0.93088218,0.26253042,-0.18914343,-0.67065484,381.53202,406.15822)"
       cx="199.78841"
       cy="628.43793"
       fx="199.78841"
       fy="628.43793"
       r="52.351501" />
    <linearGradient
       inkscape:collect="always"
       id="d">
      <stop
         offset="0"
         stop-color="#ff005f"
         id="stop1" />
      <stop
         offset="1"
         stop-color="#fc01d8"
         id="stop2" />
    </linearGradient>
    <linearGradient
       id="c">
      <stop
         offset="0"
         stop-color="#780cff"
         id="stop3" />
      <stop
         stop-color="#820bff"
         offset="1"
         stop-opacity="0"
         id="stop4" />
    </linearGradient>
    <linearGradient
       inkscape:collect="always"
       id="b">
      <stop
         offset="0"
         stop-color="#fc0"
         id="stop5" />
      <stop
         offset="1"
         stop-color="#fc0"
         stop-opacity="0"
         id="stop6" />
    </linearGradient>
    <linearGradient
       id="a">
      <stop
         offset="0"
         stop-color="#fc0"
         id="stop7" />
      <stop
         offset=".1242"
         stop-color="#fc0"
         id="stop8" />
      <stop
         offset=".5672"
         stop-color="#fe4a05"
         id="stop9" />
      <stop
         offset=".6942"
         stop-color="#ff0f3f"
         id="stop10" />
      <stop
         offset="1"
         stop-color="#fe0657"
         stop-opacity="0"
         id="stop11" />
    </linearGradient>
  </defs>
  <sodipodi:namedview
     pagecolor="#ffffff"
     bordercolor="#666666"
     borderopacity="1"
     inkscape:pageopacity="0"
     inkscape:pageshadow="2"
     inkscape:zoom="2.06"
     inkscape:cx="-62.621359"
     inkscape:cy="241.50485"
     inkscape:document-units="mm"
     inkscape:current-layer="g15"
     inkscape:document-rotation="0"
     showgrid="false"
     inkscape:window-width="3030"
     inkscape:window-height="1659"
     inkscape:window-x="0"
     inkscape:window-y="0"
     inkscape:window-maximized="1"
     id="namedview11"
     inkscape:showpageshadow="2"
     inkscape:pagecheckerboard="0"
     inkscape:deskcolor="#d1d1d1" />
  <g
     inkscape:label="Layer 1"
     inkscape:groupmode="layer"
     id="g15">
    <path
       d="M 39.636181,0 C 23.093843,0 18.255814,0.01707232 17.315399,0.09509584 13.920642,0.37735829 11.808225,0.91202158 9.5068154,2.0581137 7.73327,2.9390756 6.3345071,3.9602103 4.9540447,5.3916499 2.4399795,8.0021282 0.91628924,11.213702 0.36470328,15.031284 0.09654792,16.884589 0.01852439,17.262547 0.00268006,26.729061 c -0.00608014,3.155505 0,7.308363 0,12.878644 0,16.533438 0.01827039,21.367901 0.09752193,22.306759 0.27426546,3.304244 0.7923058,5.383114 1.88936761,7.657088 2.0966018,4.352814 6.1008115,7.620486 10.8181654,8.83978 1.633403,0.420638 3.437438,0.652313 5.753434,0.762025 0.98127,0.04268 10.982719,0.07318 20.990278,0.07318 10.00759,0 20.015149,-0.01219 20.972008,-0.06095 2.681704,-0.126216 4.23891,-0.335306 5.960669,-0.780355 4.747814,-1.225373 8.678943,-4.444286 10.818166,-8.858081 1.075736,-2.219102 1.621211,-4.377224 1.868071,-7.508948 0.05361,-0.682772 0.07616,-11.569136 0.07616,-22.440822 0,-10.873574 -0.02438,-21.739808 -0.07802,-22.422612 C 78.918619,13.99245 78.373144,11.852629 77.262693,9.5908448 76.351541,7.7393642 75.33981,6.3566856 73.870991,4.9429773 71.249639,2.438557 68.043786,0.91444765 64.223598,0.36334101 62.372598,0.09569487 62.003895,0.01644334 52.532647,0 Z"
       inkscape:connector-curvature="0"
       fill="url(#e)"
       id="path11"
       style="fill:url(#e);stroke-width:0.299514" />
    <path
       d="M 39.636181,0 C 23.093843,0 18.255814,0.01707232 17.315399,0.09509584 13.920642,0.37735829 11.808225,0.91202158 9.5068154,2.0581137 7.73327,2.9390756 6.3345071,3.9602103 4.9540447,5.3916499 2.4399795,8.0021282 0.91628924,11.213702 0.36470328,15.031284 0.09654792,16.884589 0.01852439,17.262547 0.00268006,26.729061 c -0.00608014,3.155505 0,7.308363 0,12.878644 0,16.533438 0.01827039,21.367901 0.09752193,22.306759 0.27426546,3.304244 0.7923058,5.383114 1.88936761,7.657088 2.0966018,4.352814 6.1008115,7.620486 10.8181654,8.83978 1.633403,0.420638 3.437438,0.652313 5.753434,0.762025 0.98127,0.04268 10.982719,0.07318 20.990278,0.07318 10.00759,0 20.015149,-0.01219 20.972008,-0.06095 2.681704,-0.126216 4.23891,-0.335306 5.960669,-0.780355 4.747814,-1.225373 8.678943,-4.444286 10.818166,-8.858081 1.075736,-2.219102 1.621211,-4.377224 1.868071,-7.508948 0.05361,-0.682772 0.07616,-11.569136 0.07616,-22.440822 0,-10.873574 -0.02438,-21.739808 -0.07802,-22.422612 C 78.918619,13.99245 78.373144,11.852629 77.262693,9.5908448 76.351541,7.7393642 75.33981,6.3566856 73.870991,4.9429773 71.249639,2.438557 68.043786,0.91444765 64.223598,0.36334101 62.372598,0.09569487 62.003895,0.01644334 52.532647,0 Z"
       inkscape:connector-curvature="0"
       fill="url(#f)"
       id="path12"
       style="fill:url(#f);stroke-width:0.299514" />
    <path
       d="M 39.636181,0 C 23.093843,0 18.255814,0.01707232 17.315399,0.09509584 13.920642,0.37735829 11.808225,0.91202158 9.5068154,2.0581137 7.73327,2.9390756 6.3345071,3.9602103 4.9540447,5.3916499 2.4399795,8.0021282 0.91628924,11.213702 0.36470328,15.031284 0.09654792,16.884589 0.01852439,17.262547 0.00268006,26.729061 c -0.00608014,3.155505 0,7.308363 0,12.878644 0,16.533438 0.01827039,21.367901 0.09752193,22.306759 0.27426546,3.304244 0.7923058,5.383114 1.88936761,7.657088 2.0966018,4.352814 6.1008115,7.620486 10.8181654,8.83978 1.633403,0.420638 3.437438,0.652313 5.753434,0.762025 0.98127,0.04268 10.982719,0.07318 20.990278,0.07318 10.00759,0 20.015149,-0.01219 20.972008,-0.06095 2.681704,-0.126216 4.23891,-0.335306 5.960669,-0.780355 4.747814,-1.225373 8.678943,-4.444286 10.818166,-8.858081 1.075736,-2.219102 1.621211,-4.377224 1.868071,-7.508948 0.05361,-0.682772 0.07616,-11.569136 0.07616,-22.440822 0,-10.873574 -0.02438,-21.739808 -0.07802,-22.422612 C 78.918619,13.99245 78.373144,11.852629 77.262693,9.5908448 76.351541,7.7393642 75.33981,6.3566856 73.870991,4.9429773 71.249639,2.438557 68.043786,0.91444765 64.223598,0.36334101 62.372598,0.09569487 62.003895,0.01644334 52.532647,0 Z"
       inkscape:connector-curvature="0"
       fill="url(#g)"
       id="path13"
       style="fill:url(#g);stroke-width:0.299514" />
    <path
       d="M 39.636181,0 C 23.093843,0 18.255814,0.01707232 17.315399,0.09509584 13.920642,0.37735829 11.808225,0.91202158 9.5068154,2.0581137 7.73327,2.9390756 6.3345071,3.9602103 4.9540447,5.3916499 2.4399795,8.0021282 0.91628924,11.213702 0.36470328,15.031284 0.09654792,16.884589 0.01852439,17.262547 0.00268006,26.729061 c -0.00608014,3.155505 0,7.308363 0,12.878644 0,16.533438 0.01827039,21.367901 0.09752193,22.306759 0.27426546,3.304244 0.7923058,5.383114 1.88936761,7.657088 2.0966018,4.352814 6.1008115,7.620486 10.8181654,8.83978 1.633403,0.420638 3.437438,0.652313 5.753434,0.762025 0.98127,0.04268 10.982719,0.07318 20.990278,0.07318 10.00759,0 20.015149,-0.01219 20.972008,-0.06095 2.681704,-0.126216 4.23891,-0.335306 5.960669,-0.780355 4.747814,-1.225373 8.678943,-4.444286 10.818166,-8.858081 1.075736,-2.219102 1.621211,-4.377224 1.868071,-7.508948 0.05361,-0.682772 0.07616,-11.569136 0.07616,-22.440822 0,-10.873574 -0.02438,-21.739808 -0.07802,-22.422612 C 78.918619,13.99245 78.373144,11.852629 77.262693,9.5908448 76.351541,7.7393642 75.33981,6.3566856 73.870991,4.9429773 71.249639,2.438557 68.043786,0.91444765 64.223598,0.36334101 62.372598,0.09569487 62.003895,0.01644334 52.532647,0 Z"
       inkscape:connector-curvature="0"
       fill="url(#h)"
       id="path14"
       style="fill:url(#h);stroke-width:0.299514" />
    <path
       d="m 39.639295,10.175406 c -8.00204,0 -9.006282,0.03496 -12.149178,0.17788 -3.136726,0.143529 -5.277805,0.639764 -7.151269,1.367884 -1.937888,0.751991 -3.581774,1.75794 -5.219489,3.395056 -1.638944,1.636547 -2.645673,3.279174 -3.400688,5.215026 -0.730487,1.872685 -1.22771,4.012776 -1.368872,7.145966 -0.140562,3.140529 -0.177403,4.144652 -0.177403,12.140759 0,7.996139 0.03561,8.996547 0.178002,12.137076 0.144276,3.134419 0.640871,5.273911 1.368871,7.145966 0.753189,1.936481 1.759887,3.579108 3.398233,5.215625 1.637145,1.637745 3.281001,2.646181 5.217662,3.398172 1.874661,0.728089 4.0164,1.224325 7.152497,1.367882 3.142896,0.142869 4.146509,0.177852 12.14795,0.177852 8.00267,0 9.003856,-0.03496 12.146723,-0.177882 3.136755,-0.143527 5.28029,-0.639763 7.154953,-1.367883 1.937289,-0.75196 3.578718,-1.760396 5.215836,-3.398141 1.638942,-1.636517 2.645671,-3.279144 3.400687,-5.214996 0.724316,-1.872684 1.221541,-4.012775 1.368871,-7.145966 0.141161,-3.140529 0.178002,-4.141597 0.178002,-12.137705 0,-7.996138 -0.03684,-8.999601 -0.178002,-12.140159 C 68.775351,24.343399 68.278126,22.203937 67.55381,20.331881 66.798794,18.3954 65.792065,16.752744 64.153123,15.116226 62.514149,13.478481 60.875176,12.472531 58.935459,11.721139 57.057083,10.99305 54.914776,10.496815 51.77805,10.353286 48.635154,10.210359 47.634596,10.175406 39.6301,10.175406 Z m -2.643215,5.305809 c 0.784518,-0.0013 1.659849,0 2.643215,0 7.867019,0 8.799438,0.02822 11.906092,0.169285 2.872794,0.131277 4.431947,0.61092 5.470573,1.013916 1.375011,0.533645 2.355323,1.171581 3.385952,2.202061 1.031258,1.030509 1.669644,2.011928 2.204937,3.385891 0.403296,1.03662 0.883927,2.594634 1.014665,5.465301 0.141191,3.103718 0.171891,4.036077 0.171891,11.89357 0,7.857462 -0.0307,8.789851 -0.171891,11.89357 -0.131368,2.870636 -0.611369,4.428651 -1.014665,5.465271 -0.534035,1.373992 -1.173679,2.352356 -2.204937,3.382207 -1.031228,1.030509 -2.010341,1.668415 -3.385952,2.20206 -1.037399,0.404853 -2.597779,0.883268 -5.470573,1.014546 -3.106025,0.141071 -4.039073,0.171741 -11.906092,0.171741 -7.867617,0 -8.800036,-0.03067 -11.906092,-0.171741 -2.872763,-0.132476 -4.431916,-0.612148 -5.471171,-1.015145 -1.375012,-0.533645 -2.35718,-1.171581 -3.388409,-2.20206 -1.031259,-1.03048 -1.669643,-2.009443 -2.204936,-3.384065 -0.403296,-1.03662 -0.883927,-2.594634 -1.014665,-5.465271 -0.141191,-3.103748 -0.169436,-4.036077 -0.169436,-11.898481 0,-7.862375 0.02825,-8.789852 0.169436,-11.893571 0.131366,-2.870666 0.611369,-4.42865 1.014665,-5.466498 0.534034,-1.373993 1.173677,-2.355412 2.204936,-3.385892 1.031229,-1.030509 2.013397,-1.668415 3.388409,-2.203288 1.038626,-0.404853 2.598408,-0.883268 5.471171,-1.015174 2.718095,-0.122681 3.771457,-0.159461 9.262906,-0.165631 z m 18.371113,4.888674 c -1.952026,0 -3.53577,1.580718 -3.53577,3.531875 0,1.950588 1.583744,3.533133 3.53577,3.533133 1.951996,0 3.535739,-1.582545 3.535739,-3.533133 0,-1.950558 -1.583743,-3.533072 -3.535769,-3.533072 z m -15.727898,4.128089 c -8.356246,0 -15.131205,6.769956 -15.131205,15.119999 0,8.350045 6.774959,15.116916 15.131205,15.116916 8.356246,0 15.128779,-6.766871 15.128779,-15.116916 0,-8.350043 -6.773132,-15.119999 -15.129378,-15.119999 z m 0,5.305809 c 5.423909,0 9.821501,4.393697 9.821501,9.81419 0,5.419894 -4.397592,9.814191 -9.821501,9.814191 -5.424508,0 -9.821471,-4.394297 -9.821471,-9.814191 0,-5.420493 4.396963,-9.81419 9.821471,-9.81419 z"
       inkscape:connector-curvature="0"
       fill="#ffffff"
       id="path15"
       style="stroke-width:0.299514" />
  </g>
</svg>
