<?xml version="1.0" encoding="UTF-8" standalone="no"?>
<!-- Created with Inkscape (http://www.inkscape.org/) -->

<svg
   version="1.1"
   id="svg1"
   width="300"
   height="300"
   viewBox="0 0 300 300"
   sodipodi:docname="fb-icon.svg"
   inkscape:version="1.4.2 (2aeb623e1d, 2025-05-12)"
   inkscape:export-filename="fb.png"
   inkscape:export-xdpi="96"
   inkscape:export-ydpi="96"
   xmlns:inkscape="http://www.inkscape.org/namespaces/inkscape"
   xmlns:sodipodi="http://sodipodi.sourceforge.net/DTD/sodipodi-0.dtd"
   xmlns="http://www.w3.org/2000/svg"
   xmlns:svg="http://www.w3.org/2000/svg">
  <defs
     id="defs1" />
  <sodipodi:namedview
     id="namedview1"
     pagecolor="#ffffff"
     bordercolor="#000000"
     borderopacity="0.25"
     inkscape:showpageshadow="2"
     inkscape:pageopacity="0.0"
     inkscape:pagecheckerboard="0"
     inkscape:deskcolor="#d1d1d1"
     inkscape:zoom="4.1878038"
     inkscape:cx="168.346"
     inkscape:cy="164.16719"
     inkscape:window-width="3030"
     inkscape:window-height="1659"
     inkscape:window-x="0"
     inkscape:window-y="0"
     inkscape:window-maximized="1"
     inkscape:current-layer="svg1" />
  <rect
     style="fill:#ffffff;stroke-width:0.36807"
     id="rect1"
     width="130.85617"
     height="238.04243"
     x="84.053619"
     y="59.697159" />
  <g
     inkscape:groupmode="layer"
     inkscape:label="Image"
     id="g1">
    <path
       style="fill:#027fff;stroke:none;stroke-width:0.502636"
       d="M 125.1322,297.79822 V 191.74203 H 98.995132 c -2.54174,0 -7.802938,1.00264 -9.996868,-0.36301 -2.027754,-1.26224 -1.061125,-6.60793 -1.061125,-8.68443 v -24.12653 c 0,-2.00869 -0.912299,-6.95338 1.061125,-8.18179 2.193946,-1.36568 7.455098,-0.36302 9.996868,-0.36302 H 125.1322 c 0,-26.89044 -3.88898,-60.276065 21.11071,-78.215726 14.24156,-10.219675 33.08169,-10.596802 49.76096,-8.782171 3.04045,0.330775 14.22441,0.374338 15.41415,3.574285 0.81906,2.202958 0.16756,5.690025 0.16756,8.028217 v 17.592259 c 0,1.939616 0.85548,6.4861 -1.0611,7.679156 -2.21256,1.37728 -7.43545,0.3393 -9.99689,0.36302 -8.22627,0.0761 -18.04209,-0.0576 -24.08464,6.53427 -9.64992,10.52722 -6.57615,30.11493 -6.57615,43.22669 h 39.70824 c -0.0432,10.28316 -2.6805,20.96269 -3.97921,31.16343 -0.29043,2.28125 -0.0189,8.89172 -2.10825,10.19234 -1.64477,1.02383 -5.10272,0.36301 -6.98107,0.36301 h -18.0949 c -1.82592,0 -7.53687,-0.94992 -8.37724,1.06111 -0.97162,2.32515 -0.16757,6.48061 -0.16757,8.99161 v 21.61335 74.39012 h 45.23724 c 26.27359,0 53.73158,-0.5135 70.67619,-24.12652 17.0598,-23.77354 11.7561,-58.2944 11.7561,-85.95075 V 94.230657 c 0,-18.540315 1.84544,-38.748804 -5.22184,-56.295229 -10.3276,-25.641058 -35.52471,-34.976054 -61.1261,-35.6871532 -48.16804,-1.33791642 -96.56988,0 -144.759159,0 -23.558351,0 -49.594172,-0.9307511 -67.311333,17.6062172 C 0.94132926,38.872136 1.9863949,64.226105 1.9863949,88.701662 V 219.88965 c 0,21.59978 0.8101687,44.72386 17.6062171,60.77708 17.314924,16.54909 39.807028,17.13149 62.312895,17.13149 z"
       id="path1" />
  </g>
</svg>
